PathFileType	4	(X/Y/Z)	C:/Users/beibeiliu/ov580/test_trc/User2\sequence.3_training_dense_left.trc
DataRate	CameraRate	NumFrames	NumMarkers	Units	OrigDataRate	OrigDataStartFrame	OrigNumFrames
120	120	19	19	mm	120	1	75
Frame#	Time	ThumbCMC			ThumbMCP			ThumbIP			ThumbTip			IndexMCP			IndexPIP			IndexTip			MiddleMCP			MiddlePIP			MiddleTip			RingMCP			RingPIP			RingTip			PinkyMCP			PinkyPIP			PinkyTip			BackHand1			BackHand2			BackHand3	
		X0	Y0	Z0	X1	Y1	Z1	X2	Y2	Z2	X3	Y3	Z3	X4	Y4	Z4	X5	Y5	Z5	X6	Y6	Z6	X7	Y7	Z7	X8	Y8	Z8	X9	Y9	Z9	X10	Y10	Z10	X11	Y11	Z11	X12	Y12	Z12	X13	Y13	Z13	X14	Y14	Z14	X15	Y15	Z15	X16	Y16	Z16	X17	Y17	Z17	X18	Y18	Z18	
0	0	-128.194	-56.3955	-4.30919	-108.369	-62.2613	-25.605	-84.3912	-64.2272	-51.5009	-68.0342	-69.1096	-71.7453	-147.564	-32.5629	-83.4113	-140.092	-28.9657	-109.938	-135.556	-24.5319	-142.538	-172.535	-28.9549	-90.6086	-173.591	-24.21	-122.65	-176.03	-23.062	-154.807	-196.317	-34.4884	-85.6037	-200.676	-30.2377	-108.881	-203.718	-28.5939	-138.589	-222.62	-50.1726	-67.2111	-230.882	-46.7378	-87.3727	-237.516	-35.4431	-109.818	-196.013	-37.1144	-31.6002	-195.446	-36.105	6.24749	-161.429	-32.0536	-15.6797	
1	0.00833333	-130.176	-57.3332	-7.15337	-107.878	-61.5647	-26.8473	-89.2957	-65.2945	-52.7036	-68.6226	-70.1043	-71.6592	-148.235	-31.9315	-85.6283	-141.846	-27.4887	-114.721	-138.043	-25.0381	-144.347	-172.172	-28.083	-93.7813	-173.185	-24.5012	-120.772	-176.838	-22.7118	-155.367	-201.406	-34.368	-84.1599	-200.68	-30.7121	-110.426	-204.634	-28.2888	-144.626	-220.063	-51.1574	-64.9386	-234.126	-44.1937	-92.4319	-241.23	-35.9894	-109.122	-198.441	-38.5158	-28.3614	-194.919	-34.8711	3.21876	-160.906	-32.942	-17.8599	
2	0.0166667	-130.522	-58.8187	-5.21334	-109.658	-63.3483	-24.2012	-85.1294	-65.7352	-54.8056	-72.2219	-72.1544	-69.2227	-143.008	-31.244	-88.6101	-142.513	-28.4433	-112.853	-134.99	-26.3307	-140.452	-174.973	-27.6883	-90.2928	-173.978	-24.1587	-122.146	-174.402	-23.6509	-154.289	-196.441	-34.1232	-82.4155	-201.748	-30.1301	-115.179	-205.637	-30.9341	-144.681	-221.979	-48.8812	-65.2009	-234.218	-44.7517	-91.491	-240.042	-40.3839	-114.264	-199.276	-37.7761	-28.5734	-194.527	-37.1142	3.03874	-162.601	-33.9443	-14.6004	
3	0.025	-127.554	-56.9383	-8.80095	-110.012	-63.2097	-27.154	-88.71	-67.3443	-54.3937	-75.6237	-74.0983	-71.9953	-146.862	-27.6225	-86.3465	-139.589	-23.7741	-115.288	-142.659	-28.0503	-140.765	-173.462	-24.4038	-86.7539	-175.307	-20.5303	-123.769	-177.704	-27.9241	-155.953	-196.525	-29.7081	-82.8358	-202.355	-27.2578	-113.415	-201.138	-33.8516	-140.719	-216.989	-47.7486	-64.1463	-229.209	-40.8995	-93.441	-236.178	-44.2349	-119.623	-198.178	-37.9253	-30.5523	-199.433	-37.6769	3.19727	-162.093	-32.4143	-15.8433	
4	0.0333333	-133.474	-56.4436	-4.19623	-110.725	-61.4286	-29.447	-91.9675	-67.2431	-56.7165	-86.3156	-73.2586	-82.8195	-146.642	-17.5247	-77.0024	-144.837	-13.5019	-107.893	-142.315	-31.0155	-136.405	-172.816	-11.5162	-86.1831	-173.499	-15.2165	-123.005	-173.441	-37.4992	-147.259	-200.913	-23.0525	-78.4008	-198.289	-22.047	-113.24	-193.84	-47.5179	-135.75	-221.803	-41.5403	-65.2452	-222.627	-38.6443	-95.9406	-219.531	-56.8763	-121.588	-200.554	-33.0202	-27.045	-196.223	-35.0513	4.41404	-164.788	-29.7943	-12.2376	
5	0.0416667	-135.993	-51.2301	-5.94971	-117.203	-56.7993	-30.3893	-106.156	-59.3049	-65.3137	-107.063	-64.1481	-92.0026	-149.045	-7.85295	-70.6487	-151.713	-11.8639	-106.72	-145.115	-41.2065	-118.277	-177.193	-6.56873	-83.0648	-171.643	-16.71	-116.796	-168.263	-55.5863	-120.472	-199.947	-17.6797	-79.1326	-193.671	-28.5033	-111.302	-183.846	-60.1887	-110.663	-216.403	-35.4988	-68.3327	-210.423	-41.4131	-98.5131	-197.248	-71.5766	-102.97	-200.058	-29.0984	-20.4374	-202.417	-35.2126	8.99993	-165.055	-25.0169	-5.28833	
6	0.05	-135.538	-46.6528	-4.95192	-120.031	-51.3529	-35.6046	-117.953	-54.5261	-67.6092	-128.663	-54.3196	-94.3747	-152.782	-1.70206	-74.6316	-145.282	-12.8117	-100.413	-143.116	-48.0298	-92.4211	-174.424	-7.77223	-85.2339	-163.795	-28.0558	-109.058	-159.082	-64.0203	-85.9529	-190.867	-20.4295	-81.4654	-182.641	-42.6399	-104.228	-172.18	-68.0216	-76.2391	-212.079	-38.2018	-76.1918	-193.823	-60.9961	-95.2188	-184.009	-79.9388	-72.9176	-200.41	-26.5051	-19.3081	-206.283	-35.6922	11.5814	-171.24	-20.5427	0.251898	
7	0.0583333	-135.651	-46.3366	-2.56569	-122.21	-51.1084	-37.9046	-123.692	-49.5463	-77.4158	-141.432	-51.109	-99.907	-149.207	-2.6564	-75.7219	-139.572	-27.0499	-95.6457	-141.891	-50.9298	-72.6534	-168.987	-15.438	-85.8643	-158.388	-44.0848	-98.3245	-153.544	-61.4054	-58.9841	-184.507	-31.6003	-84.7373	-175.129	-62.194	-90.0869	-171.27	-67.9634	-55.3648	-202.368	-48.7879	-81.3854	-182.601	-73.071	-79.6853	-180.311	-75.0182	-44.1606	-206.191	-25.8184	-21.9171	-206.529	-35.9503	8.60601	-169.83	-17.0196	0.847054	
8	0.0666667	-135.39	-46.1925	-8.6821	-124.458	-52.2752	-44.3046	-131.166	-54.2656	-78.2599	-154.341	-53.9581	-99.1165	-147.144	-6.80844	-76.4214	-138.611	-36.6749	-92.1059	-137.469	-50.4175	-58.2708	-167.251	-19.7708	-83.877	-156.959	-55.7178	-89.31	-155.542	-59.3999	-50.4985	-181.347	-42.2465	-84.7524	-169.739	-70.653	-78.2761	-168.341	-62.2909	-40.947	-199.66	-54.6095	-76.7619	-178.363	-78.547	-66.2016	-181.533	-71.3845	-32.0553	-202.723	-24.8574	-26.0758	-206.231	-38.9145	8.5068	-170.449	-19.9882	-1.56467	
9	0.075	-137.052	-49.0732	-10.0118	-121.573	-55.6212	-49.082	-129.189	-57.5829	-83.2651	-156.167	-57.7642	-98.242	-144.36	-9.29464	-78.7961	-141.046	-36.1357	-93.8621	-142.409	-52.3949	-59.3252	-164.476	-20.9039	-86.4488	-153.751	-54.4231	-89.503	-156.027	-57.4479	-50.1861	-177.282	-42.9807	-84.2096	-171.262	-72.2978	-75.4397	-171.232	-61.259	-38.8037	-196.15	-51.6574	-74.3197	-180.158	-78.9677	-57.9759	-183.444	-66.1628	-29.2878	-204.638	-23.8443	-27.2034	-205.218	-35.4073	4.12968	-168.298	-20.3133	-1.86218	
10	0.0833333	-137.057	-47.0528	-14.2324	-125.87	-54.3194	-50.735	-136.472	-54.5087	-86.5849	-162.336	-51.584	-103.81	-148.721	-7.77178	-80.6646	-142.033	-33.9521	-94.2321	-146.568	-49.0457	-59.3249	-167.926	-17.8559	-88.646	-159.166	-49.5178	-91.8158	-163.395	-54.9672	-52.0153	-187.237	-40.0763	-84.0922	-175.531	-68.016	-76.3824	-174.609	-57.3041	-38.4176	-199.454	-47.4408	-74.8712	-184.386	-75.1686	-59.2131	-187.609	-63.1322	-29.9281	-205.881	-20.1288	-27.0875	-205.513	-33.2036	2.2364	-171.235	-18.1115	-3.62838	
11	0.0916667	-144.406	-47.0134	-14.0617	-127.332	-53.0817	-52.41	-138.355	-53.2848	-88.293	-165.36	-51.8545	-101.933	-153.582	-5.59246	-83.2024	-148.101	-33.9083	-95.631	-150.645	-48.2845	-65.2895	-175.007	-15.2003	-87.756	-166.407	-50.405	-92.8962	-165.304	-52.2612	-50.7045	-192.401	-36.8031	-84.0951	-177.727	-64.4139	-78.3682	-179.37	-59.2136	-41.8816	-200.701	-49.4655	-77.2367	-188.323	-71.884	-61.8732	-192.527	-62.7162	-28.1064	-210.763	-16.4508	-28.9394	-212.248	-31.883	3.41438	-172.318	-16.2317	-7.31952	
12	0.1	-147.637	-39.2963	-16.3801	-133.21	-50.1419	-48.2985	-135.293	-56.5234	-85.8129	-161.301	-59.0117	-104.084	-158.653	-11.4218	-87.8904	-147.746	-39.1691	-95.9074	-149.251	-50.2859	-63.9466	-177.107	-24.4807	-91.8652	-164.684	-58.1343	-89.6758	-165.566	-57.0919	-51.3408	-194.226	-48.8413	-85.946	-173.001	-71.0709	-72.9458	-177.65	-59.6791	-39.4588	-206.17	-59.8835	-75.4214	-185.987	-79.0031	-58.2122	-188.415	-63.5503	-25.5185	-211.591	-22.761	-33.8339	-213.781	-35.1785	3.5009	-180.797	-16.8535	-8.7756	
13	0.108333	-146.633	-29.9045	-10.0631	-125.132	-39.585	-43.6059	-123.727	-52.8006	-78.0914	-146.19	-68.0479	-95.4426	-163.65	-21.2318	-87.4385	-143.054	-45.3898	-93.1084	-143.834	-47.5433	-53.7439	-173.332	-41.1117	-93.3437	-150.434	-65.1637	-81.6028	-155.26	-56.5076	-45.0521	-179.941	-64.528	-82.5077	-160.37	-79.1824	-66.4443	-167.575	-61.8668	-34.7842	-187.454	-76.0263	-70.8211	-168.963	-84.1186	-43.5955	-178.868	-64.553	-21.3234	-213.504	-36.838	-37.7576	-216.798	-38.8743	-0.949535	-189.418	-14.6885	-10.7951	
14	0.116667	-150.508	-13.2775	-9.79111	-122.147	-22.2829	-33.5119	-109.089	-41.2433	-64.0027	-122.145	-65.7387	-79.4001	-154.519	-31.2208	-88.6885	-129.465	-47.2297	-82.9219	-135.417	-40.5396	-47.0997	-159.967	-49.8352	-86.6375	-131.045	-63.5868	-70.4248	-148.946	-48.5554	-34.3859	-159.83	-73.1471	-73.5567	-138.065	-77.5262	-51.1517	-154.179	-58.6707	-27.4015	-164.981	-89.3066	-59.4024	-146.966	-84.9181	-34.0606	-168.017	-63.939	-11.2175	-209.764	-54.0263	-36.8145	-212.124	-47.5266	-3.94639	-195.343	-18.6279	-19.7045	
15	0.125	-158.228	-4.47332	-11.7807	-125.292	-9.24096	-31.402	-102.261	-28.7366	-56.4635	-100.219	-55.2324	-63.6379	-143.444	-32.6488	-84.452	-113.594	-36.7528	-72.5793	-131.268	-30.3419	-37.8027	-143.506	-56.8424	-78.569	-112.946	-52.8728	-54.854	-136.839	-40.9435	-27.168	-138.932	-74.8775	-62.2483	-118.453	-66.6901	-39.6635	-143.875	-52.7137	-17.786	-140.458	-88.9516	-45.8329	-127.57	-72.2759	-21.0974	-154.593	-57.2995	-6.51375	-193.866	-64.4326	-37.6799	-207.401	-55.7049	-4.62294	-197.454	-23.8963	-28.3224	
16	0.133333	-166.296	0.575023	-13.2059	-127.336	1.41156	-30.2446	-99.5273	-12.9955	-43.2889	-89.427	-42.6314	-50.3156	-132.598	-32.1345	-77.5837	-104.615	-28.0159	-59.1425	-125.486	-19.3551	-32.6612	-126.15	-54.7988	-67.2195	-100.415	-42.9836	-42.6448	-131.063	-32.2131	-19.8524	-117.841	-64.1202	-50.0477	-104.285	-51.7448	-23.6638	-139.07	-42.2188	-9.51328	-118.812	-77.4666	-31.5687	-113.452	-57.6818	-8.77804	-143.805	-50.5906	-0.356161	-180.366	-70.719	-30.1864	-199.576	-62.1614	-7.22497	-193.49	-34.2696	-31.878	
17	0.141667	-172.698	3.27979	-17.1131	-138.258	13.7257	-24.7475	-103.708	7.11708	-36.0928	-83.6432	-18.083	-39.5509	-125.005	-22.0686	-73.2875	-100.289	-11.8634	-51.9533	-125.537	-6.63374	-29.4816	-109.043	-41.1898	-59.6173	-94.8505	-22.0634	-35.4589	-133.169	-20.7892	-15.4983	-102.919	-52.4555	-39.2674	-95.5396	-33.4732	-16.1261	-133.283	-28.0283	-8.61173	-106.911	-62.5974	-22.9331	-108.109	-38.3795	1.87395	-137.243	-39.7782	4.62575	-165.073	-69.7852	-29.0807	-188.213	-68.1315	-5.23417	-187.952	-40.4259	-30.551	
18	0.15	-182.546	3.12908	-21.4648	-154.379	21.2676	-27.8198	-115.103	25.1389	-40.4049	-95.8269	4.49669	-37.0036	-126.422	-13.3124	-71.5029	-104.977	6.15529	-54.4143	-131.949	2.69933	-29.3995	-109.699	-27.1521	-58.4895	-99.138	-4.09993	-28.9436	-132.141	-8.64518	-13.1577	-100.847	-36.026	-37.16	-99.3387	-13.8599	-11.6173	-137.669	-20.6677	-6.55481	-101.308	-45.2094	-17.9563	-111.899	-19.801	1.81813	-139.709	-29.1635	2.63211	-157.132	-65.2008	-26.3744	-182.807	-70.2677	-3.47182	-184.286	-42.5449	-29.399	
